<?xml version="1.0" standalone="no"?>
<!DOCTYPE svg PUBLIC "-//W3C//DTD SVG 20010904//EN"
 "http://www.w3.org/TR/2001/REC-SVG-20010904/DTD/svg10.dtd">
<svg version="1.0" xmlns="http://www.w3.org/2000/svg"
 width="1024.000000pt" height="481.000000pt" viewBox="0 0 1024.000000 481.000000"
 preserveAspectRatio="xMidYMid meet">

<g transform="translate(0.000000,481.000000) scale(0.100000,-0.100000)"
fill="#000000" stroke="none">
<path d="M7651 3110 c-140 -64 -327 -277 -435 -497 -67 -135 -68 -147 -10 -93
201 188 339 256 497 248 120 -6 191 -48 270 -158 17 -25 18 -25 12 38 -11 125
-36 216 -86 314 -41 81 -141 169 -191 168 -7 0 -33 -9 -57 -20z"/>
<path d="M1798 2983 l-28 -4 0 -282 c0 -162 4 -276 9 -268 6 9 23 12 55 10 25
-2 46 -1 46 3 0 4 7 5 15 2 11 -5 15 2 15 27 0 19 3 51 6 72 7 37 7 37 56 37
61 0 109 -19 136 -56 12 -16 27 -35 32 -41 6 -7 7 -13 2 -13 -6 0 -12 -29 -14
-65 -3 -54 -9 -70 -30 -92 -23 -22 -37 -27 -102 -31 l-76 -5 0 67 c0 76 11 72
-95 36 l-50 -17 -3 -75 -3 -76 107 -7 c226 -16 335 15 383 108 55 108 19 228
-87 285 l-54 29 43 24 c54 30 89 92 89 160 0 81 -63 147 -161 168 -47 10 -233
13 -291 4z m270 -106 c24 -25 27 -35 27 -97 0 -93 -18 -112 -110 -118 l-65 -4
0 127 0 127 60 -4 c49 -4 66 -9 88 -31z"/>
<path d="M2416 2982 c-2 -4 -4 -179 -4 -390 l0 -382 224 0 224 0 0 33 0 34
-97 6 c-54 4 -122 7 -150 7 l-53 0 0 139 c0 117 2 140 16 145 9 3 65 6 125 6
l109 0 0 30 0 30 -64 0 c-34 0 -91 3 -125 6 l-61 7 0 128 0 129 135 0 135 0 6
25 c14 55 12 55 -210 55 -113 0 -207 -3 -210 -8z"/>
<path d="M2990 2600 l0 -390 209 0 209 0 5 33 c2 17 3 35 0 40 -2 4 -65 7
-139 7 l-134 0 -2 158 c-2 86 -3 243 -3 347 l0 190 -72 3 -73 3 0 -391z"/>
<path d="M3548 2983 c-16 -4 -18 -33 -18 -389 l0 -384 213 2 212 3 3 38 3 37
-140 0 -141 0 0 344 c0 304 -2 345 -16 350 -17 7 -89 6 -116 -1z"/>
<path d="M4283 2982 l-203 -2 0 -385 0 -385 70 0 70 0 2 168 3 167 133 3 132
3 0 34 0 35 -74 0 c-40 0 -101 3 -135 6 l-62 7 3 136 3 136 140 5 140 5 3 31
c2 19 -2 33 -10 35 -7 2 -104 3 -215 1z"/>
<path d="M4823 2971 c-151 -52 -222 -191 -211 -410 9 -169 63 -268 176 -323
62 -31 73 -33 172 -33 127 0 188 18 254 77 61 53 93 110 112 199 39 182 -21
381 -134 453 -90 57 -263 74 -369 37z m247 -92 c46 -26 86 -86 101 -154 15
-66 7 -294 -12 -350 -17 -49 -67 -77 -151 -83 -119 -9 -181 26 -217 123 -38
101 -37 337 1 421 28 62 197 88 278 43z"/>
<path d="M5500 2600 l0 -390 42 0 41 0 -6 270 c-4 149 -3 270 1 270 9 0 106
-99 221 -225 35 -38 118 -125 183 -192 105 -108 124 -123 153 -123 l32 0 0
384 1 384 -34 4 c-19 2 -39 1 -46 -3 -8 -5 -9 -78 -4 -268 5 -147 4 -261 -1
-261 -5 0 -81 75 -168 167 -342 359 -357 373 -387 373 l-28 0 0 -390z"/>
<path d="M6356 2983 c-3 -4 -6 -179 -6 -390 l0 -383 220 0 220 0 0 34 0 34
-150 7 -150 7 0 69 0 68 -32 11 c-29 8 -29 9 -5 6 15 -2 27 2 28 8 4 65 13
112 22 118 7 4 63 8 125 8 l112 0 0 30 0 30 -72 0 c-40 0 -97 3 -125 6 l-53 7
0 128 0 128 138 3 137 3 0 35 0 35 -201 2 c-111 1 -204 -1 -208 -4z"/>
<path d="M7984 2875 c48 -168 67 -354 47 -459 -15 -83 -52 -157 -106 -215 -58
-62 -125 -92 -211 -94 -35 -1 -64 -5 -64 -8 0 -3 26 -20 58 -37 204 -107 451
-122 537 -32 30 31 30 32 29 143 -1 91 -6 129 -28 202 -39 129 -80 229 -133
319 -52 91 -138 211 -129 181z"/>
<path d="M7335 2583 c-204 -135 -333 -364 -266 -470 40 -64 251 -144 455 -172
117 -17 386 -11 386 8 0 3 -37 17 -82 31 -45 13 -130 48 -190 77 -128 64 -209
135 -254 228 -25 51 -29 72 -29 141 0 71 4 88 32 142 17 34 28 62 25 62 -4 0
-39 -21 -77 -47z"/>
<path d="M3490 1994 c-455 -5 -1165 -25 -1174 -34 -4 -4 25 -11 65 -15 61 -5
3798 -2 3879 4 19 1 22 3 10 10 -38 22 -1875 45 -2780 35z"/>
</g>
</svg>
